<svg width="512" height="512" viewBox="0 0 512 512" fill="none" xmlns="http://www.w3.org/2000/svg">
<g filter="url(#filter0_i_144_7)">
<rect width="512" height="512" rx="166.135" fill="#9AC3F3"/>
</g>
<g filter="url(#filter1_f_144_7)">
<path d="M154.824 374.309C154.824 321.398 154.824 268.486 154.824 215.574C154.941 215.233 155.129 214.9 155.174 214.55C156.844 202.994 166.972 194.267 180.656 194.393C207.484 194.635 234.322 194.501 261.15 194.411C263.997 194.402 265.972 195.318 267.759 197.49C273.55 204.548 279.539 211.452 285.33 218.51C286.668 220.135 288.015 220.763 290.143 220.754C323.634 220.683 357.125 220.683 390.624 220.746C393.354 220.754 396.182 220.952 398.795 221.679C409.875 224.759 416.322 233.684 416.331 245.742C416.358 275.624 416.34 305.496 416.34 335.377C416.34 346.888 416.358 358.408 416.331 369.919C416.295 385.003 406.454 394.934 391.361 395.077C383.468 395.149 375.567 395.095 367.666 395.095C305.434 395.095 243.211 395.077 180.979 395.122C174.074 395.131 167.816 393.65 162.564 388.891C158.209 384.949 156.09 379.867 154.824 374.309Z" fill="url(#paint0_linear_144_7)" fill-opacity="0.64"/>
</g>
<g filter="url(#filter2_i_144_7)">
<path d="M130.33 338.176C130.33 285.264 130.33 232.352 130.33 179.44C130.446 179.099 130.635 178.766 130.68 178.416C132.35 166.861 142.478 158.133 156.162 158.259C182.99 158.501 209.828 158.367 236.656 158.277C239.502 158.268 241.478 159.184 243.265 161.357C249.056 168.414 255.045 175.319 260.836 182.376C262.174 184.001 263.521 184.63 265.649 184.621C299.139 184.549 332.63 184.549 366.13 184.612C368.86 184.621 371.688 184.818 374.301 185.545C385.381 188.625 391.827 197.55 391.836 209.608C391.863 239.49 391.845 269.362 391.845 299.244C391.845 310.754 391.863 322.274 391.836 333.785C391.8 348.869 381.96 358.8 366.866 358.943C358.974 359.015 351.073 358.961 343.171 358.961C280.939 358.961 218.717 358.943 156.485 358.988C149.58 358.997 143.322 357.516 138.069 352.757C133.715 348.815 131.596 343.733 130.33 338.176Z" fill="url(#paint1_linear_144_7)"/>
</g>
<g filter="url(#filter3_f_144_7)">
<path d="M137.307 329.145C137.307 280.942 137.307 232.739 137.307 184.535C137.413 184.225 137.585 183.922 137.626 183.603C139.148 173.076 148.374 165.125 160.84 165.239C185.281 165.46 209.731 165.338 234.172 165.256C236.765 165.248 238.564 166.082 240.192 168.061C245.468 174.491 250.924 180.781 256.2 187.21C257.419 188.691 258.646 189.263 260.584 189.255C291.095 189.19 321.605 189.19 352.124 189.247C354.61 189.255 357.187 189.435 359.567 190.098C369.661 192.903 375.534 201.034 375.542 212.019C375.567 239.242 375.551 266.456 375.551 293.678C375.551 304.164 375.567 314.659 375.542 325.145C375.51 338.887 366.545 347.934 352.795 348.065C345.605 348.13 338.406 348.081 331.208 348.081C274.514 348.081 217.829 348.065 161.135 348.106C154.845 348.114 149.143 346.764 144.358 342.429C140.391 338.838 138.46 334.209 137.307 329.145Z" fill="url(#paint2_linear_144_7)"/>
</g>
<g filter="url(#filter4_f_144_7)">
<path d="M158.477 211.393C157.314 202.084 160.107 184.63 180.587 189.284" stroke="white" stroke-width="5.11185" stroke-linecap="round"/>
</g>
<g filter="url(#filter5_f_144_7)">
<path d="M160.582 205.964C162.521 200.534 168.96 189.906 179.2 190.837" stroke="url(#paint3_linear_144_7)" stroke-width="7.66778" stroke-linecap="round"/>
</g>
<defs>
<filter id="filter0_i_144_7" x="0" y="0" width="555.451" height="568.23" filterUnits="userSpaceOnUse" color-interpolation-filters="sRGB">
<feFlood flood-opacity="0" result="BackgroundImageFix"/>
<feBlend mode="normal" in="SourceGraphic" in2="BackgroundImageFix" result="shape"/>
<feColorMatrix in="SourceAlpha" type="matrix" values="0 0 0 0 0 0 0 0 0 0 0 0 0 0 0 0 0 0 127 0" result="hardAlpha"/>
<feOffset dx="43.4508" dy="56.2304"/>
<feGaussianBlur stdDeviation="34.505"/>
<feComposite in2="hardAlpha" operator="arithmetic" k2="-1" k3="1"/>
<feColorMatrix type="matrix" values="0 0 0 0 0.755417 0 0 0 0 0.925 0 0 0 0 0.86395 0 0 0 1 0"/>
<feBlend mode="normal" in2="shape" result="effect1_innerShadow_144_7"/>
</filter>
<filter id="filter1_f_144_7" x="73.6909" y="113.259" width="423.787" height="362.997" filterUnits="userSpaceOnUse" color-interpolation-filters="sRGB">
<feFlood flood-opacity="0" result="BackgroundImageFix"/>
<feBlend mode="normal" in="SourceGraphic" in2="BackgroundImageFix" result="shape"/>
<feGaussianBlur stdDeviation="40.5665" result="effect1_foregroundBlur_144_7"/>
</filter>
<filter id="filter2_i_144_7" x="117.55" y="145.478" width="274.301" height="213.51" filterUnits="userSpaceOnUse" color-interpolation-filters="sRGB">
<feFlood flood-opacity="0" result="BackgroundImageFix"/>
<feBlend mode="normal" in="SourceGraphic" in2="BackgroundImageFix" result="shape"/>
<feColorMatrix in="SourceAlpha" type="matrix" values="0 0 0 0 0 0 0 0 0 0 0 0 0 0 0 0 0 0 127 0" result="hardAlpha"/>
<feOffset dx="-12.7796" dy="-12.7796"/>
<feGaussianBlur stdDeviation="12.7796"/>
<feComposite in2="hardAlpha" operator="arithmetic" k2="-1" k3="1"/>
<feColorMatrix type="matrix" values="0 0 0 0 1 0 0 0 0 1 0 0 0 0 1 0 0 0 0.66 0"/>
<feBlend mode="normal" in2="shape" result="effect1_innerShadow_144_7"/>
</filter>
<filter id="filter3_f_144_7" x="127.083" y="155.014" width="258.696" height="203.315" filterUnits="userSpaceOnUse" color-interpolation-filters="sRGB">
<feFlood flood-opacity="0" result="BackgroundImageFix"/>
<feBlend mode="normal" in="SourceGraphic" in2="BackgroundImageFix" result="shape"/>
<feGaussianBlur stdDeviation="5.11185" result="effect1_foregroundBlur_144_7"/>
</filter>
<filter id="filter4_f_144_7" x="145.474" y="175.73" width="47.8927" height="48.4433" filterUnits="userSpaceOnUse" color-interpolation-filters="sRGB">
<feFlood flood-opacity="0" result="BackgroundImageFix"/>
<feBlend mode="normal" in="SourceGraphic" in2="BackgroundImageFix" result="shape"/>
<feGaussianBlur stdDeviation="5.11185" result="effect1_foregroundBlur_144_7"/>
</filter>
<filter id="filter5_f_144_7" x="151.635" y="181.833" width="36.5109" height="33.0778" filterUnits="userSpaceOnUse" color-interpolation-filters="sRGB">
<feFlood flood-opacity="0" result="BackgroundImageFix"/>
<feBlend mode="normal" in="SourceGraphic" in2="BackgroundImageFix" result="shape"/>
<feGaussianBlur stdDeviation="2.55593" result="effect1_foregroundBlur_144_7"/>
</filter>
<linearGradient id="paint0_linear_144_7" x1="179.26" y1="188.573" x2="357.297" y2="418.973" gradientUnits="userSpaceOnUse">
<stop offset="0.049765" stop-color="#6DFFD1"/>
<stop offset="0.223958" stop-color="#65F8D7"/>
<stop offset="0.224058" stop-color="#65F8D7"/>
<stop offset="0.380208" stop-color="#31C8FC"/>
<stop offset="0.565268" stop-color="#31CBFC"/>
<stop offset="0.9999" stop-color="#0B58D8"/>
<stop offset="1" stop-color="#033FD0"/>
</linearGradient>
<linearGradient id="paint1_linear_144_7" x1="154.766" y1="152.439" x2="332.802" y2="382.839" gradientUnits="userSpaceOnUse">
<stop offset="0.049765" stop-color="#6DFFD1"/>
<stop offset="0.565268" stop-color="#31CBFC"/>
<stop offset="0.565368" stop-color="#31C8FC"/>
<stop offset="1" stop-color="#316DFC"/>
</linearGradient>
<linearGradient id="paint2_linear_144_7" x1="159.569" y1="159.938" x2="244.362" y2="256.002" gradientUnits="userSpaceOnUse">
<stop offset="0.0597546" stop-color="white" stop-opacity="0.72"/>
<stop offset="1" stop-color="white" stop-opacity="0"/>
</linearGradient>
<linearGradient id="paint3_linear_144_7" x1="175.749" y1="190.353" x2="161.578" y2="201.753" gradientUnits="userSpaceOnUse">
<stop stop-color="white"/>
<stop offset="1" stop-color="white" stop-opacity="0.11"/>
</linearGradient>
</defs>
</svg>
