<svg width="554" height="524" viewBox="0 0 554 524" fill="none" xmlns="http://www.w3.org/2000/svg">
<g filter="url(#filter0_d_20_17)">
<rect x="6" y="2" width="512" height="512" rx="110" fill="black" fill-opacity="0.35"/>
</g>
<ellipse cx="100.238" cy="123.974" rx="6.90865" ry="6.44282" fill="#FFC700"/>
<ellipse cx="74.6511" cy="124.073" rx="6.90865" ry="6.44282" fill="#F24E1E"/>
<ellipse cx="124.983" cy="123.974" rx="6.90865" ry="6.44282" fill="#0FA958"/>
<rect x="-4.01192" y="-4.01192" width="314.976" height="470.976" rx="54.1574" transform="matrix(0 -1 -1 0 495.976 402.976)" stroke="#444444" stroke-width="8.02384"/>
<g clip-path="url(#clip0_20_17)">
<path d="M232.128 289.279C211.697 283.661 200.204 267.173 195.621 259.063C198.661 260.496 201.466 262.385 204.035 264.73C204.643 264.73 203.845 263.306 201.641 260.456C199.436 257.606 196.753 255.847 193.591 255.18H193.614C195.507 251.198 201.892 239.253 213.977 230.118C218.492 234.319 228.525 242.258 234.386 262.703C234.705 273.915 233.154 283.954 232.128 289.279Z" fill="url(#paint0_linear_20_17)"/>
<path d="M252.354 253.812C252.582 265.048 251.26 278.043 246.973 291.991C247.52 284.101 246.653 273.646 244.35 263.167C245.171 248.926 243.393 232.609 234.203 220.445C242.306 227.414 248.356 238.537 252.354 253.812Z" fill="url(#paint1_linear_20_17)"/>
<path d="M283.663 226.454C286.551 233.163 288.565 241.126 289.705 250.343C287.129 261.897 282.408 275.356 273.812 288.424C273.812 288.4 276.776 278.727 278.441 266.343C282.089 254.838 284.803 240.89 283.663 226.454Z" fill="url(#paint2_linear_20_17)"/>
<path d="M287.379 281.707C283.982 283.93 280.516 285.737 277.027 287.179C280.516 285.737 283.982 283.93 287.379 281.707Z" fill="url(#paint3_linear_20_17)"/>
<path d="M303.136 240.67C303.136 240.638 303.144 240.605 303.159 240.572C303.098 240.523 303.091 240.556 303.136 240.67Z" fill="url(#paint4_linear_20_17)"/>
<path d="M303.136 240.67C303.387 241.378 305.644 245.458 307.902 251.174C307.469 257.256 306.237 265.292 305.12 270.715C304.481 265.26 302.9 258.844 300.377 251.467C301.471 247.9 302.406 244.285 303.136 240.67Z" fill="url(#paint5_linear_20_17)"/>
<path d="M260.062 216.829C266.401 227.072 270.247 239.962 271.6 255.497C269.776 265.952 266.059 278.019 259.697 291.673C261.339 283.433 262.129 274.265 262.068 264.169C264.257 249.952 264.805 232.805 260.062 216.829Z" fill="url(#paint6_linear_20_17)"/>
<path d="M338.731 232.121L330.568 255.082C329.268 246.948 326.942 238.349 322.906 231.144L338.731 232.121Z" fill="url(#paint7_linear_20_17)"/>
<path d="M320.9 251.198C322.062 258.599 322.427 267.906 320.626 277.872C320.033 270.023 318.186 262.508 315.085 255.326C314.88 249.219 314.195 243.186 312.736 239.278C315.32 242.404 318.042 246.378 320.9 251.198Z" fill="url(#paint8_linear_20_17)"/>
<path d="M209.211 250.099C209.211 243.088 213.954 237.275 220.202 236.151C224.398 240.695 229.323 247.583 233.063 258.526C230.669 262.019 226.792 264.266 222.437 264.266C215.117 264.266 209.211 257.94 209.211 250.099Z" fill="url(#paint9_linear_20_17)"/>
<g style="mix-blend-mode:multiply" opacity="0.4">
<path d="M210.557 246.874C210.557 245.458 210.739 244.09 211.104 242.771C213.065 239.327 216.349 236.835 220.202 236.151C224.238 240.548 228.981 247.094 232.653 257.378C230.304 259.65 227.203 261.042 223.782 261.042C216.463 261.042 210.557 254.715 210.557 246.874Z" fill="#666666"/>
</g>
<path d="M268.521 290.012C265.557 290.794 262.616 291.331 259.697 291.673C275.089 258.648 274.952 234.856 270.346 220.884C274.815 222.179 279.284 224.011 283.663 226.454C285.829 253.958 273.971 279.802 268.521 290.012Z" fill="url(#paint10_linear_20_17)"/>
<path d="M245.422 216.585C250.074 216.194 254.999 216.219 260.062 216.829C269 246.874 259.104 281.072 255.113 292.04C252.354 292.186 249.618 292.162 246.973 291.991C258.146 255.644 249.116 225.672 245.422 216.585Z" fill="url(#paint11_linear_20_17)"/>
<path d="M232.105 289.401C234.317 278.067 238.946 244.969 222.482 224.817C225.105 223.474 227.932 222.301 230.942 221.373C231.991 221.047 233.078 220.738 234.203 220.445C251.214 242.942 242.823 279.655 239.607 291.111C236.985 290.672 234.454 290.085 232.105 289.401Z" fill="url(#paint12_linear_20_17)"/>
<path style="mix-blend-mode:multiply" opacity="0.5" d="M232.128 289.279C229.186 288.473 226.427 287.447 223.851 286.226C229.711 275.869 232.265 266.391 232.972 258.233C233.458 259.65 233.929 261.14 234.386 262.703C234.705 273.915 233.154 283.93 232.128 289.279Z" fill="url(#paint13_linear_20_17)"/>
<path d="M331.822 284.247C327.741 281.756 323.682 279.655 320.626 277.872C324.252 257.891 319.121 240.621 316.385 235.858C317.89 235.198 321.014 232.536 322.906 231.144C334.399 251.687 331.936 283.246 331.822 284.247Z" fill="url(#paint14_linear_20_17)"/>
<path d="M287.379 281.707C282.956 284.614 278.395 286.788 273.812 288.424C287.539 267.613 291.393 245.702 292.35 232.267C295.953 235.15 299.511 237.495 303.159 240.572C300.035 256.034 293.194 271.692 287.379 281.707Z" fill="url(#paint15_linear_20_17)"/>
<path d="M305.12 270.715C306.762 262.703 308.677 249 307.856 244.334C308.997 242.991 311.322 240.694 312.736 239.278C315.929 247.754 315.359 266.123 314.561 273.793C311.049 272.327 307.72 271.521 305.12 270.715Z" fill="url(#paint16_linear_20_17)"/>
<path d="M221.206 258.844C226.293 258.844 230.418 254.425 230.418 248.975C230.418 243.525 226.293 239.107 221.206 239.107C216.118 239.107 211.993 243.525 211.993 248.975C211.993 254.425 216.118 258.844 221.206 258.844Z" fill="white"/>
<path d="M220.521 258.086C225.609 258.086 229.734 253.668 229.734 248.218C229.734 242.768 225.609 238.349 220.521 238.349C215.434 238.349 211.309 242.768 211.309 248.218C211.309 253.668 215.434 258.086 220.521 258.086Z" fill="url(#paint17_linear_20_17)"/>
<path d="M220.704 253.592C223.223 253.592 225.264 251.405 225.264 248.706C225.264 246.008 223.223 243.821 220.704 243.821C218.185 243.821 216.143 246.008 216.143 248.706C216.143 251.405 218.185 253.592 220.704 253.592Z" fill="black"/>
<path d="M219.108 248.682C219.876 248.682 220.499 247.927 220.499 246.997C220.499 246.066 219.876 245.311 219.108 245.311C218.34 245.311 217.717 246.066 217.717 246.997C217.717 247.927 218.34 248.682 219.108 248.682Z" fill="white"/>
<path style="mix-blend-mode:multiply" opacity="0.5" d="M298.028 236.566C297.147 253.111 289.074 270.397 273.812 288.424C287.539 267.613 291.393 245.702 292.35 232.267C294.243 233.782 296.136 235.15 298.028 236.566Z" fill="url(#paint18_linear_20_17)"/>
<path style="mix-blend-mode:multiply" opacity="0.5" d="M263.824 282.122C275.02 254.031 274.496 233.464 270.346 220.884C272.58 221.544 274.792 222.301 277.004 223.229C277.688 231.583 279.353 255.815 264.006 281.854C263.961 281.951 263.892 282.025 263.824 282.122Z" fill="url(#paint19_linear_20_17)"/>
<path style="mix-blend-mode:multiply" opacity="0.5" d="M307.925 244.749C308.563 247.241 311.322 258.99 309.316 271.961C307.788 271.497 306.374 271.106 305.12 270.715C306.716 262.923 308.563 249.757 307.925 244.749Z" fill="url(#paint20_linear_20_17)"/>
<path style="mix-blend-mode:multiply" opacity="0.5" d="M316.385 235.858C325.43 245.287 327.961 259.918 323.978 279.753C322.792 279.093 321.652 278.483 320.626 277.872C324.252 257.891 319.121 240.621 316.385 235.858Z" fill="url(#paint21_linear_20_17)"/>
<path style="mix-blend-mode:multiply" opacity="0.5" d="M246.973 291.991C258.146 255.644 249.116 225.672 245.422 216.585C247.885 216.39 250.439 216.292 253.038 216.341C255.022 223.4 261.544 254.374 246.973 291.991Z" fill="url(#paint22_linear_20_17)"/>
<path d="M331.868 283.808C331.868 283.954 331.875 284.101 331.891 284.247C331.875 284.231 331.853 284.215 331.822 284.199C331.837 284.133 331.853 284.003 331.868 283.808Z" fill="url(#paint23_linear_20_17)"/>
<path d="M187.959 215.657C192.883 215.657 196.875 211.381 196.875 206.106C196.875 200.831 192.883 196.555 187.959 196.555C183.035 196.555 179.043 200.831 179.043 206.106C179.043 211.381 183.035 215.657 187.959 215.657Z" fill="url(#paint24_linear_20_17)"/>
<path d="M173.365 233.293C176.891 233.293 179.75 230.231 179.75 226.454C179.75 222.676 176.891 219.614 173.365 219.614C169.839 219.614 166.98 222.676 166.98 226.454C166.98 230.231 169.839 233.293 173.365 233.293Z" fill="url(#paint25_linear_20_17)"/>
<path d="M183.855 247.509C186.121 247.509 187.959 245.541 187.959 243.113C187.959 240.684 186.121 238.716 183.855 238.716C181.588 238.716 179.75 240.684 179.75 243.113C179.75 245.541 181.588 247.509 183.855 247.509Z" fill="url(#paint26_linear_20_17)"/>
<path d="M121.928 364.352C120.157 364.245 118.685 363.84 117.512 363.136C116.339 362.411 115.368 361.515 114.6 360.448L116.552 358.848C117.32 359.808 118.131 360.555 118.984 361.088C119.837 361.621 120.829 361.941 121.96 362.048V353.696L121.224 353.568C120.115 353.376 119.187 353.088 118.44 352.704C117.693 352.299 117.096 351.829 116.648 351.296C116.2 350.741 115.88 350.133 115.688 349.472C115.496 348.789 115.4 348.085 115.4 347.36C115.4 345.547 115.976 344.128 117.128 343.104C118.301 342.059 119.901 341.461 121.928 341.312V338.048H123.912V341.312C125.384 341.419 126.653 341.781 127.72 342.4C128.808 342.997 129.757 343.84 130.568 344.928L128.552 346.368C127.976 345.6 127.315 344.981 126.568 344.512C125.843 344.043 124.947 343.755 123.88 343.648V351.488L124.84 351.648C125.928 351.84 126.845 352.128 127.592 352.512C128.339 352.896 128.936 353.365 129.384 353.92C129.853 354.453 130.184 355.061 130.376 355.744C130.568 356.427 130.664 357.141 130.664 357.888C130.664 359.765 130.077 361.269 128.904 362.4C127.752 363.531 126.088 364.181 123.912 364.352V367.616H121.928V364.352ZM117.992 347.36C117.992 348.405 118.291 349.227 118.888 349.824C119.507 350.421 120.531 350.869 121.96 351.168V343.616C120.68 343.744 119.699 344.128 119.016 344.768C118.333 345.387 117.992 346.251 117.992 347.36ZM128.072 357.92C128.072 356.768 127.741 355.893 127.08 355.296C126.44 354.699 125.373 354.272 123.88 354.016V362.016C125.224 361.867 126.259 361.44 126.984 360.736C127.709 360.032 128.072 359.093 128.072 357.92ZM146.748 352.8V345.728H146.492L141.788 357.216L137.084 345.728H136.828V352.8V364H134.364V341.664H137.82L141.756 351.52H141.948L145.884 341.664H149.212V364H146.748V352.8ZM166.767 364L164.879 357.632H157.039L155.151 364H152.367L159.215 341.664H162.767L169.615 364H166.767ZM161.103 344.512H160.815L157.679 355.296H164.239L161.103 344.512ZM181.507 344V364H178.819V344H171.363V341.664H188.963V344H181.507ZM199.286 364.384C197.281 364.384 195.638 364.021 194.358 363.296C193.078 362.549 192.022 361.6 191.19 360.448L193.142 358.848C194.017 359.936 194.934 360.747 195.894 361.28C196.875 361.813 198.038 362.08 199.382 362.08C201.003 362.08 202.241 361.707 203.094 360.96C203.947 360.213 204.374 359.168 204.374 357.824C204.374 356.736 204.065 355.893 203.446 355.296C202.827 354.677 201.75 354.24 200.214 353.984L197.718 353.568C196.63 353.376 195.713 353.088 194.966 352.704C194.241 352.32 193.654 351.861 193.206 351.328C192.758 350.773 192.438 350.176 192.246 349.536C192.054 348.875 191.958 348.192 191.958 347.488C191.958 345.44 192.63 343.893 193.974 342.848C195.318 341.803 197.131 341.28 199.414 341.28C201.206 341.28 202.71 341.579 203.926 342.176C205.163 342.773 206.155 343.616 206.902 344.704L205.014 346.336C204.395 345.525 203.649 344.864 202.774 344.352C201.899 343.84 200.769 343.584 199.382 343.584C197.867 343.584 196.705 343.904 195.894 344.544C195.083 345.184 194.678 346.144 194.678 347.424C194.678 348.427 194.977 349.248 195.574 349.888C196.193 350.507 197.291 350.955 198.87 351.232L201.27 351.648C202.358 351.84 203.275 352.128 204.022 352.512C204.769 352.896 205.366 353.355 205.814 353.888C206.283 354.421 206.614 355.019 206.806 355.68C206.998 356.341 207.094 357.035 207.094 357.76C207.094 359.829 206.411 361.451 205.046 362.624C203.702 363.797 201.782 364.384 199.286 364.384ZM217.194 364V355.232L209.482 341.664H212.554L215.754 347.488L218.474 352.576H218.602L221.386 347.488L224.586 341.664H227.594L219.882 355.232V364H217.194ZM243.517 364L241.629 357.632H233.789L231.901 364H229.117L235.965 341.664H239.517L246.365 364H243.517ZM237.853 344.512H237.565L234.429 355.296H240.989L237.853 344.512Z" fill="white"/>
<path d="M277.444 344V364H274.756V344H267.3V341.664H284.9V344H277.444ZM288.568 364V341.664H302.328V344H291.256V351.52H301.944V353.856H291.256V361.664H302.328V364H288.568ZM310.443 364H307.755V341.664H315.883C317.952 341.664 319.531 342.229 320.619 343.36C321.707 344.491 322.251 346.069 322.251 348.096C322.251 349.909 321.782 351.36 320.843 352.448C319.904 353.536 318.539 354.165 316.747 354.336L322.443 364H319.435L313.995 354.464H310.443V364ZM315.819 352.192C316.95 352.192 317.824 351.915 318.443 351.36C319.083 350.784 319.403 349.973 319.403 348.928V347.264C319.403 346.219 319.083 345.419 318.443 344.864C317.824 344.288 316.95 344 315.819 344H310.443V352.192H315.819ZM338.623 352.8V345.728H338.367L333.663 357.216L328.959 345.728H328.703V352.8V364H326.239V341.664H329.695L333.631 351.52H333.823L337.759 341.664H341.087V364H338.623V352.8ZM345.938 364V361.856H351.506V343.808H345.938V341.664H359.762V343.808H354.194V361.856H359.762V364H345.938ZM367.654 345.088H367.43V364H364.998V341.664H368.806L376.422 360.384H376.646V341.664H379.078V364H375.27L367.654 345.088ZM397.017 364L395.129 357.632H387.289L385.401 364H382.617L389.465 341.664H393.017L399.865 364H397.017ZM391.353 344.512H391.065L387.929 355.296H394.489L391.353 344.512ZM404.653 364V341.664H407.341V361.664H417.933V364H404.653Z" fill="#F24E1E"/>
</g>
<defs>
<filter id="filter0_d_20_17" x="0" y="0" width="524" height="524" filterUnits="userSpaceOnUse" color-interpolation-filters="sRGB">
<feFlood flood-opacity="0" result="BackgroundImageFix"/>
<feColorMatrix in="SourceAlpha" type="matrix" values="0 0 0 0 0 0 0 0 0 0 0 0 0 0 0 0 0 0 127 0" result="hardAlpha"/>
<feOffset dy="4"/>
<feGaussianBlur stdDeviation="3"/>
<feColorMatrix type="matrix" values="0 0 0 0 0 0 0 0 0 0 0 0 0 0 0 0 0 0 0.09 0"/>
<feBlend mode="normal" in2="BackgroundImageFix" result="effect1_dropShadow_20_17"/>
<feBlend mode="normal" in="SourceGraphic" in2="effect1_dropShadow_20_17" result="shape"/>
</filter>
<linearGradient id="paint0_linear_20_17" x1="300.788" y1="296.852" x2="183.804" y2="287.114" gradientUnits="userSpaceOnUse">
<stop offset="0.2" stop-color="#0B0078"/>
<stop offset="0.6" stop-color="#0006C0"/>
<stop offset="0.8" stop-color="#0071BC"/>
</linearGradient>
<linearGradient id="paint1_linear_20_17" x1="300.696" y1="298.097" x2="184.17" y2="288.402" gradientUnits="userSpaceOnUse">
<stop offset="0.2" stop-color="#0B0078"/>
<stop offset="0.6" stop-color="#0006C0"/>
<stop offset="0.8" stop-color="#0071BC"/>
</linearGradient>
<linearGradient id="paint2_linear_20_17" x1="301.928" y1="292.088" x2="184.146" y2="282.287" gradientUnits="userSpaceOnUse">
<stop offset="0.2" stop-color="#0B0078"/>
<stop offset="0.6" stop-color="#0006C0"/>
<stop offset="0.8" stop-color="#0071BC"/>
</linearGradient>
<linearGradient id="paint3_linear_20_17" x1="302.042" y1="290.55" x2="184.282" y2="280.748" gradientUnits="userSpaceOnUse">
<stop offset="0.2" stop-color="#0B0078"/>
<stop offset="0.6" stop-color="#0006C0"/>
<stop offset="0.8" stop-color="#0071BC"/>
</linearGradient>
<linearGradient id="paint4_linear_20_17" x1="305.422" y1="241.504" x2="214.526" y2="233.949" gradientUnits="userSpaceOnUse">
<stop offset="0.2" stop-color="#0B0078"/>
<stop offset="0.6" stop-color="#0006C0"/>
<stop offset="0.8" stop-color="#0071BC"/>
</linearGradient>
<linearGradient id="paint5_linear_20_17" x1="303.638" y1="271.546" x2="185.855" y2="261.744" gradientUnits="userSpaceOnUse">
<stop offset="0.2" stop-color="#0B0078"/>
<stop offset="0.6" stop-color="#0006C0"/>
<stop offset="0.8" stop-color="#0071BC"/>
</linearGradient>
<linearGradient id="paint6_linear_20_17" x1="301.54" y1="296.632" x2="183.758" y2="286.83" gradientUnits="userSpaceOnUse">
<stop offset="0.2" stop-color="#0B0078"/>
<stop offset="0.6" stop-color="#0006C0"/>
<stop offset="0.8" stop-color="#0071BC"/>
</linearGradient>
<linearGradient id="paint7_linear_20_17" x1="305.12" y1="253.641" x2="187.338" y2="243.839" gradientUnits="userSpaceOnUse">
<stop offset="0.2" stop-color="#0B0078"/>
<stop offset="0.6" stop-color="#0006C0"/>
<stop offset="0.8" stop-color="#0071BC"/>
</linearGradient>
<linearGradient id="paint8_linear_20_17" x1="303.706" y1="276.871" x2="192.68" y2="267.623" gradientUnits="userSpaceOnUse">
<stop offset="0.2" stop-color="#0B0078"/>
<stop offset="0.6" stop-color="#0006C0"/>
<stop offset="0.8" stop-color="#0071BC"/>
</linearGradient>
<linearGradient id="paint9_linear_20_17" x1="249.663" y1="258.209" x2="209.82" y2="268.958" gradientUnits="userSpaceOnUse">
<stop stop-color="#0B0078"/>
<stop offset="0.3" stop-color="#0006C0"/>
<stop offset="1" stop-color="#0CB7FF"/>
</linearGradient>
<linearGradient id="paint10_linear_20_17" x1="193.158" y1="226.429" x2="352.2" y2="214.584" gradientUnits="userSpaceOnUse">
<stop stop-color="#812500"/>
<stop offset="0.2" stop-color="#B30056"/>
<stop offset="0.3" stop-color="#FF5945"/>
<stop offset="0.4" stop-color="#FFBD2D"/>
<stop offset="0.5" stop-color="#F5FF43"/>
<stop offset="0.6" stop-color="#82E82D"/>
<stop offset="0.7" stop-color="#00C79F"/>
<stop offset="0.8" stop-color="#00CCEC"/>
<stop offset="1" stop-color="#69DBFF"/>
</linearGradient>
<linearGradient id="paint11_linear_20_17" x1="200.5" y1="219.052" x2="333.413" y2="209.146" gradientUnits="userSpaceOnUse">
<stop stop-color="#812500"/>
<stop offset="0.2" stop-color="#B30056"/>
<stop offset="0.3" stop-color="#FF5945"/>
<stop offset="0.4" stop-color="#FFBD2D"/>
<stop offset="0.5" stop-color="#F5FF43"/>
<stop offset="0.6" stop-color="#82E82D"/>
<stop offset="0.7" stop-color="#00C79F"/>
<stop offset="0.8" stop-color="#00CCEC"/>
<stop offset="1" stop-color="#69DBFF"/>
</linearGradient>
<linearGradient id="paint12_linear_20_17" x1="195.735" y1="221.739" x2="327.437" y2="211.939" gradientUnits="userSpaceOnUse">
<stop stop-color="#812500"/>
<stop offset="0.2" stop-color="#B30056"/>
<stop offset="0.3" stop-color="#FF5945"/>
<stop offset="0.4" stop-color="#FFBD2D"/>
<stop offset="0.5" stop-color="#F5FF43"/>
<stop offset="0.6" stop-color="#82E82D"/>
<stop offset="0.7" stop-color="#00C79F"/>
<stop offset="0.8" stop-color="#00CCEC"/>
<stop offset="1" stop-color="#69DBFF"/>
</linearGradient>
<linearGradient id="paint13_linear_20_17" x1="246.813" y1="275.014" x2="234.198" y2="286.36" gradientUnits="userSpaceOnUse">
<stop stop-color="white"/>
<stop offset="1" stop-color="#4D4D4D"/>
</linearGradient>
<linearGradient id="paint14_linear_20_17" x1="205.039" y1="240.67" x2="355.021" y2="229.507" gradientUnits="userSpaceOnUse">
<stop stop-color="#812500"/>
<stop offset="0.2" stop-color="#B30056"/>
<stop offset="0.3" stop-color="#FF5945"/>
<stop offset="0.4" stop-color="#FFBD2D"/>
<stop offset="0.5" stop-color="#F5FF43"/>
<stop offset="0.6" stop-color="#82E82D"/>
<stop offset="0.7" stop-color="#00C79F"/>
<stop offset="0.8" stop-color="#00CCEC"/>
<stop offset="1" stop-color="#69DBFF"/>
</linearGradient>
<linearGradient id="paint15_linear_20_17" x1="188.871" y1="240.133" x2="360.488" y2="227.35" gradientUnits="userSpaceOnUse">
<stop stop-color="#812500"/>
<stop offset="0.2" stop-color="#B30056"/>
<stop offset="0.3" stop-color="#FF5945"/>
<stop offset="0.4" stop-color="#FFBD2D"/>
<stop offset="0.5" stop-color="#F5FF43"/>
<stop offset="0.6" stop-color="#82E82D"/>
<stop offset="0.7" stop-color="#00C79F"/>
<stop offset="0.8" stop-color="#00CCEC"/>
<stop offset="1" stop-color="#69DBFF"/>
</linearGradient>
<linearGradient id="paint16_linear_20_17" x1="197.445" y1="248.316" x2="357.309" y2="236.407" gradientUnits="userSpaceOnUse">
<stop stop-color="#812500"/>
<stop offset="0.2" stop-color="#B30056"/>
<stop offset="0.3" stop-color="#FF5945"/>
<stop offset="0.4" stop-color="#FFBD2D"/>
<stop offset="0.5" stop-color="#F5FF43"/>
<stop offset="0.6" stop-color="#82E82D"/>
<stop offset="0.7" stop-color="#00C79F"/>
<stop offset="0.8" stop-color="#00CCEC"/>
<stop offset="1" stop-color="#69DBFF"/>
</linearGradient>
<linearGradient id="paint17_linear_20_17" x1="211.309" y1="237.372" x2="229.734" y2="237.372" gradientUnits="userSpaceOnUse">
<stop stop-color="#B3B3B3"/>
<stop offset="0.9" stop-color="white"/>
</linearGradient>
<linearGradient id="paint18_linear_20_17" x1="310.638" y1="251.735" x2="283.9" y2="275.788" gradientUnits="userSpaceOnUse">
<stop stop-color="white"/>
<stop offset="1" stop-color="#4D4D4D"/>
</linearGradient>
<linearGradient id="paint19_linear_20_17" x1="293.947" y1="249.439" x2="272.117" y2="269.091" gradientUnits="userSpaceOnUse">
<stop stop-color="white"/>
<stop offset="1" stop-color="#4D4D4D"/>
</linearGradient>
<linearGradient id="paint20_linear_20_17" x1="318.277" y1="261.482" x2="310.451" y2="268.515" gradientUnits="userSpaceOnUse">
<stop stop-color="white"/>
<stop offset="1" stop-color="#4D4D4D"/>
</linearGradient>
<linearGradient id="paint21_linear_20_17" x1="324.89" y1="233.904" x2="329.595" y2="283.849" gradientUnits="userSpaceOnUse">
<stop stop-color="white"/>
<stop offset="1" stop-color="#4D4D4D"/>
</linearGradient>
<linearGradient id="paint22_linear_20_17" x1="262.889" y1="190.351" x2="254.037" y2="259.604" gradientUnits="userSpaceOnUse">
<stop stop-color="white"/>
<stop offset="1" stop-color="#4D4D4D"/>
</linearGradient>
<linearGradient id="paint23_linear_20_17" x1="331.822" y1="282.831" x2="331.891" y2="282.831" gradientUnits="userSpaceOnUse">
<stop offset="0.2" stop-color="#0B0078"/>
<stop offset="0.6" stop-color="#0006C0"/>
<stop offset="0.8" stop-color="#0071BC"/>
</linearGradient>
<linearGradient id="paint24_linear_20_17" x1="252.035" y1="148.532" x2="124.575" y2="278.044" gradientUnits="userSpaceOnUse">
<stop stop-color="#812500"/>
<stop offset="0.2" stop-color="#B30056"/>
<stop offset="0.3" stop-color="#FF5945"/>
<stop offset="0.4" stop-color="#FFBD2D"/>
<stop offset="0.5" stop-color="#F5FF43"/>
<stop offset="0.6" stop-color="#82E82D"/>
<stop offset="0.7" stop-color="#00C79F"/>
<stop offset="0.8" stop-color="#00CCEC"/>
<stop offset="1" stop-color="#69DBFF"/>
</linearGradient>
<linearGradient id="paint25_linear_20_17" x1="265.056" y1="132.215" x2="137.596" y2="261.726" gradientUnits="userSpaceOnUse">
<stop stop-color="#812500"/>
<stop offset="0.2" stop-color="#B30056"/>
<stop offset="0.3" stop-color="#FF5945"/>
<stop offset="0.4" stop-color="#FFBD2D"/>
<stop offset="0.5" stop-color="#F5FF43"/>
<stop offset="0.6" stop-color="#82E82D"/>
<stop offset="0.7" stop-color="#00C79F"/>
<stop offset="0.8" stop-color="#00CCEC"/>
<stop offset="1" stop-color="#69DBFF"/>
</linearGradient>
<linearGradient id="paint26_linear_20_17" x1="267.997" y1="153.662" x2="140.537" y2="283.173" gradientUnits="userSpaceOnUse">
<stop stop-color="#812500"/>
<stop offset="0.2" stop-color="#B30056"/>
<stop offset="0.3" stop-color="#FF5945"/>
<stop offset="0.4" stop-color="#FFBD2D"/>
<stop offset="0.5" stop-color="#F5FF43"/>
<stop offset="0.6" stop-color="#82E82D"/>
<stop offset="0.7" stop-color="#00C79F"/>
<stop offset="0.8" stop-color="#00CCEC"/>
<stop offset="1" stop-color="#69DBFF"/>
</linearGradient>
<clipPath id="clip0_20_17">
<rect width="384" height="277" fill="white" transform="translate(70 119)"/>
</clipPath>
</defs>
</svg>
