<svg width="540" height="512" viewBox="0 0 540 512" fill="none" xmlns="http://www.w3.org/2000/svg">
<g filter="url(#filter0_i_144_18)">
<rect width="512" height="512" rx="166.135" fill="#FFFBE8"/>
</g>
<g opacity="0.4" clip-path="url(#clip0_144_18)" filter="url(#filter1_f_144_18)">
<g filter="url(#filter2_i_144_18)">
<path d="M465.078 306.485C465.078 308.119 465.078 309.753 465.078 311.387C463.274 317.191 459.079 321.24 454.555 324.837C418.888 353.273 383.136 381.611 347.433 410.022C343.482 413.168 339.019 413.936 334.3 413.046C325.728 411.437 320.436 404.657 320.412 395.487C320.363 380.465 320.4 365.442 320.4 350.431C320.4 349.566 320.4 348.7 320.4 347.249C319.241 348.139 318.558 348.651 317.888 349.175C292.208 369.588 266.516 390 240.823 410.388C240.006 411.034 239.092 411.62 238.116 411.998C226.227 416.668 214.302 408.62 214.302 395.829C214.265 337.872 214.29 279.915 214.302 221.958C214.302 220.507 214.461 219.02 214.778 217.593C217.46 205.606 232.044 200.497 241.64 208.131C267.076 228.336 292.513 248.528 317.949 268.733C318.607 269.258 319.29 269.745 320.412 270.599C320.412 269.136 320.412 268.258 320.412 267.392C320.412 252.784 320.412 238.164 320.412 223.556C320.412 222.251 320.387 220.934 320.546 219.641C321.339 213.191 324.716 208.496 330.655 205.984C336.495 203.521 342.226 203.716 347.458 207.887C383.112 236.225 418.791 264.514 454.409 292.877C459.018 296.535 463.493 300.413 465.078 306.485Z" fill="url(#paint0_linear_144_18)"/>
</g>
<g filter="url(#filter3_f_144_18)">
<path d="M449.962 302.139C453.793 305.068 453.793 310.837 449.962 313.766L348.638 391.239C343.822 394.921 336.875 391.487 336.875 385.425L336.875 230.479C336.875 224.417 343.822 220.984 348.638 224.666L449.962 302.139Z" fill="url(#paint1_linear_144_18)"/>
</g>
<g filter="url(#filter4_f_144_18)">
<path d="M328.57 303.694C332.401 306.623 332.401 312.392 328.57 315.321L236.935 385.386C232.119 389.068 225.172 385.634 225.172 379.572L225.172 239.443C225.172 233.381 232.119 229.948 236.935 233.63L328.57 303.694Z" fill="url(#paint2_linear_144_18)"/>
</g>
<g filter="url(#filter5_f_144_18)">
<path d="M442.218 302.141C446.049 305.07 446.049 310.839 442.218 313.768L352.509 382.36C347.694 386.042 340.746 382.608 340.746 376.546L340.746 239.363C340.746 233.302 347.694 229.868 352.509 233.55L442.218 302.141Z" fill="url(#paint3_linear_144_18)"/>
</g>
<g filter="url(#filter6_f_144_18)">
<path d="M321.449 303.691C325.28 306.62 325.28 312.389 321.449 315.318L240.498 377.214C235.682 380.896 228.734 377.462 228.734 371.4L228.734 247.608C228.734 241.547 235.682 238.113 240.498 241.795L321.449 303.691Z" fill="url(#paint4_linear_144_18)"/>
</g>
<g filter="url(#filter7_f_144_18)">
<path d="M435.011 292.894C437.573 295.457 443.291 301.175 445.659 303.542C448.026 305.91 439.281 312.946 434.613 316.169" stroke="url(#paint5_linear_144_18)" stroke-width="3.65907" stroke-linecap="round"/>
</g>
<g filter="url(#filter8_f_144_18)">
<path d="M315.433 295.657C317.79 298.014 323.049 303.272 325.226 305.45C327.404 307.628 319.361 314.099 315.067 317.062" stroke="url(#paint6_linear_144_18)" stroke-width="3.65907" stroke-linecap="round"/>
</g>
</g>
<g clip-path="url(#clip1_144_18)">
<g filter="url(#filter9_i_144_18)">
<path d="M401.019 271.055C401.019 272.689 401.019 274.323 401.019 275.957C399.215 281.761 395.02 285.809 390.496 289.406C354.83 317.842 319.078 346.18 283.374 374.592C279.424 377.738 274.961 378.506 270.242 377.616C261.669 376.006 256.377 369.226 256.353 360.057C256.304 345.034 256.341 330.011 256.341 315.001C256.341 314.135 256.341 313.269 256.341 311.818C255.182 312.708 254.5 313.221 253.829 313.745C228.149 334.157 202.457 354.569 176.765 374.957C175.948 375.604 175.033 376.189 174.058 376.567C162.169 381.237 150.243 373.189 150.243 360.398C150.207 302.441 150.231 244.485 150.243 186.528C150.243 185.077 150.402 183.589 150.719 182.162C153.401 170.176 167.985 165.067 177.582 172.7C203.018 192.905 228.454 213.098 253.89 233.303C254.548 233.827 255.231 234.315 256.353 235.169C256.353 233.705 256.353 232.827 256.353 231.962C256.353 217.353 256.353 202.733 256.353 188.125C256.353 186.82 256.329 185.503 256.487 184.211C257.28 177.76 260.657 173.066 266.596 170.554C272.437 168.091 278.168 168.286 283.399 172.456C319.053 200.794 354.732 229.084 390.35 257.446C394.959 261.105 399.434 264.982 401.019 271.055Z" fill="url(#paint7_linear_144_18)"/>
</g>
<g filter="url(#filter10_f_144_18)">
<path d="M385.902 266.708C389.733 269.637 389.733 275.406 385.902 278.335L284.578 355.808C279.762 359.49 272.815 356.056 272.815 349.995L272.815 195.049C272.815 188.987 279.762 185.553 284.578 189.235L385.902 266.708Z" fill="url(#paint8_linear_144_18)"/>
</g>
<g filter="url(#filter11_f_144_18)">
<path d="M264.511 268.264C268.342 271.193 268.342 276.962 264.511 279.891L172.876 349.955C168.06 353.637 161.113 350.203 161.113 344.141L161.113 204.013C161.113 197.951 168.06 194.517 172.876 198.199L264.511 268.264Z" fill="url(#paint9_linear_144_18)"/>
</g>
<g filter="url(#filter12_f_144_18)">
<path d="M378.155 266.711C381.986 269.64 381.986 275.409 378.155 278.338L288.447 346.929C283.631 350.611 276.683 347.178 276.683 341.116L276.683 203.933C276.683 197.871 283.631 194.437 288.447 198.119L378.155 266.711Z" fill="url(#paint10_linear_144_18)"/>
</g>
<g filter="url(#filter13_f_144_18)">
<path d="M257.391 268.26C261.221 271.189 261.221 276.958 257.391 279.887L176.439 341.783C171.623 345.465 164.676 342.032 164.676 335.97L164.676 212.178C164.676 206.116 171.623 202.682 176.439 206.364L257.391 268.26Z" fill="url(#paint11_linear_144_18)"/>
</g>
<g filter="url(#filter14_f_144_18)">
<path d="M370.948 257.464C373.511 260.027 379.228 265.744 381.596 268.112C383.964 270.48 375.218 277.516 370.55 280.738" stroke="url(#paint12_linear_144_18)" stroke-width="3.65907" stroke-linecap="round"/>
</g>
<g filter="url(#filter15_f_144_18)">
<path d="M251.374 260.226C253.731 262.583 258.99 267.842 261.167 270.019C263.345 272.197 255.302 278.669 251.008 281.632" stroke="url(#paint13_linear_144_18)" stroke-width="3.65907" stroke-linecap="round"/>
</g>
</g>
<defs>
<filter id="filter0_i_144_18" x="0" y="0" width="555.451" height="568.23" filterUnits="userSpaceOnUse" color-interpolation-filters="sRGB">
<feFlood flood-opacity="0" result="BackgroundImageFix"/>
<feBlend mode="normal" in="SourceGraphic" in2="BackgroundImageFix" result="shape"/>
<feColorMatrix in="SourceAlpha" type="matrix" values="0 0 0 0 0 0 0 0 0 0 0 0 0 0 0 0 0 0 127 0" result="hardAlpha"/>
<feOffset dx="43.4508" dy="56.2304"/>
<feGaussianBlur stdDeviation="34.505"/>
<feComposite in2="hardAlpha" operator="arithmetic" k2="-1" k3="1"/>
<feColorMatrix type="matrix" values="0 0 0 0 0.970833 0 0 0 0 0.948321 0 0 0 0 0.841389 0 0 0 1 0"/>
<feBlend mode="normal" in2="shape" result="effect1_innerShadow_144_18"/>
</filter>
<filter id="filter1_f_144_18" x="139.557" y="129.665" width="400.24" height="358.44" filterUnits="userSpaceOnUse" color-interpolation-filters="sRGB">
<feFlood flood-opacity="0" result="BackgroundImageFix"/>
<feBlend mode="normal" in="SourceGraphic" in2="BackgroundImageFix" result="shape"/>
<feGaussianBlur stdDeviation="37.3598" result="effect1_foregroundBlur_144_18"/>
</filter>
<filter id="filter2_i_144_18" x="214.283" y="204.385" width="250.795" height="221.46" filterUnits="userSpaceOnUse" color-interpolation-filters="sRGB">
<feFlood flood-opacity="0" result="BackgroundImageFix"/>
<feBlend mode="normal" in="SourceGraphic" in2="BackgroundImageFix" result="shape"/>
<feColorMatrix in="SourceAlpha" type="matrix" values="0 0 0 0 0 0 0 0 0 0 0 0 0 0 0 0 0 0 127 0" result="hardAlpha"/>
<feOffset dy="12.4533"/>
<feGaussianBlur stdDeviation="6.22663"/>
<feComposite in2="hardAlpha" operator="arithmetic" k2="-1" k3="1"/>
<feColorMatrix type="matrix" values="0 0 0 0 1 0 0 0 0 1 0 0 0 0 1 0 0 0 0.48 0"/>
<feBlend mode="normal" in2="shape" result="effect1_innerShadow_144_18"/>
</filter>
<filter id="filter3_f_144_18" x="322.238" y="208.511" width="145.233" height="198.881" filterUnits="userSpaceOnUse" color-interpolation-filters="sRGB">
<feFlood flood-opacity="0" result="BackgroundImageFix"/>
<feBlend mode="normal" in="SourceGraphic" in2="BackgroundImageFix" result="shape"/>
<feGaussianBlur stdDeviation="7.31815" result="effect1_foregroundBlur_144_18"/>
</filter>
<filter id="filter4_f_144_18" x="210.535" y="217.476" width="135.544" height="184.065" filterUnits="userSpaceOnUse" color-interpolation-filters="sRGB">
<feFlood flood-opacity="0" result="BackgroundImageFix"/>
<feBlend mode="normal" in="SourceGraphic" in2="BackgroundImageFix" result="shape"/>
<feGaussianBlur stdDeviation="7.31815" result="effect1_foregroundBlur_144_18"/>
</filter>
<filter id="filter5_f_144_18" x="322.451" y="213.736" width="140.936" height="188.437" filterUnits="userSpaceOnUse" color-interpolation-filters="sRGB">
<feFlood flood-opacity="0" result="BackgroundImageFix"/>
<feBlend mode="normal" in="SourceGraphic" in2="BackgroundImageFix" result="shape"/>
<feGaussianBlur stdDeviation="9.14768" result="effect1_foregroundBlur_144_18"/>
</filter>
<filter id="filter6_f_144_18" x="210.439" y="221.981" width="132.179" height="175.046" filterUnits="userSpaceOnUse" color-interpolation-filters="sRGB">
<feFlood flood-opacity="0" result="BackgroundImageFix"/>
<feBlend mode="normal" in="SourceGraphic" in2="BackgroundImageFix" result="shape"/>
<feGaussianBlur stdDeviation="9.14768" result="effect1_foregroundBlur_144_18"/>
</filter>
<filter id="filter7_f_144_18" x="429.109" y="287.391" width="22.4517" height="34.281" filterUnits="userSpaceOnUse" color-interpolation-filters="sRGB">
<feFlood flood-opacity="0" result="BackgroundImageFix"/>
<feBlend mode="normal" in="SourceGraphic" in2="BackgroundImageFix" result="shape"/>
<feGaussianBlur stdDeviation="1.83685" result="effect1_foregroundBlur_144_18"/>
</filter>
<filter id="filter8_f_144_18" x="302.26" y="282.85" width="36.14" height="47.0194" filterUnits="userSpaceOnUse" color-interpolation-filters="sRGB">
<feFlood flood-opacity="0" result="BackgroundImageFix"/>
<feBlend mode="normal" in="SourceGraphic" in2="BackgroundImageFix" result="shape"/>
<feGaussianBlur stdDeviation="5.48861" result="effect1_foregroundBlur_144_18"/>
</filter>
<filter id="filter9_i_144_18" x="150.224" y="168.955" width="250.795" height="221.46" filterUnits="userSpaceOnUse" color-interpolation-filters="sRGB">
<feFlood flood-opacity="0" result="BackgroundImageFix"/>
<feBlend mode="normal" in="SourceGraphic" in2="BackgroundImageFix" result="shape"/>
<feColorMatrix in="SourceAlpha" type="matrix" values="0 0 0 0 0 0 0 0 0 0 0 0 0 0 0 0 0 0 127 0" result="hardAlpha"/>
<feOffset dy="12.4533"/>
<feGaussianBlur stdDeviation="6.22663"/>
<feComposite in2="hardAlpha" operator="arithmetic" k2="-1" k3="1"/>
<feColorMatrix type="matrix" values="0 0 0 0 1 0 0 0 0 1 0 0 0 0 1 0 0 0 0.48 0"/>
<feBlend mode="normal" in2="shape" result="effect1_innerShadow_144_18"/>
</filter>
<filter id="filter10_f_144_18" x="258.178" y="173.081" width="145.233" height="198.882" filterUnits="userSpaceOnUse" color-interpolation-filters="sRGB">
<feFlood flood-opacity="0" result="BackgroundImageFix"/>
<feBlend mode="normal" in="SourceGraphic" in2="BackgroundImageFix" result="shape"/>
<feGaussianBlur stdDeviation="7.31815" result="effect1_foregroundBlur_144_18"/>
</filter>
<filter id="filter11_f_144_18" x="146.477" y="182.045" width="135.544" height="184.065" filterUnits="userSpaceOnUse" color-interpolation-filters="sRGB">
<feFlood flood-opacity="0" result="BackgroundImageFix"/>
<feBlend mode="normal" in="SourceGraphic" in2="BackgroundImageFix" result="shape"/>
<feGaussianBlur stdDeviation="7.31815" result="effect1_foregroundBlur_144_18"/>
</filter>
<filter id="filter12_f_144_18" x="258.388" y="178.306" width="140.936" height="188.437" filterUnits="userSpaceOnUse" color-interpolation-filters="sRGB">
<feFlood flood-opacity="0" result="BackgroundImageFix"/>
<feBlend mode="normal" in="SourceGraphic" in2="BackgroundImageFix" result="shape"/>
<feGaussianBlur stdDeviation="9.14768" result="effect1_foregroundBlur_144_18"/>
</filter>
<filter id="filter13_f_144_18" x="146.38" y="186.551" width="132.179" height="175.046" filterUnits="userSpaceOnUse" color-interpolation-filters="sRGB">
<feFlood flood-opacity="0" result="BackgroundImageFix"/>
<feBlend mode="normal" in="SourceGraphic" in2="BackgroundImageFix" result="shape"/>
<feGaussianBlur stdDeviation="9.14768" result="effect1_foregroundBlur_144_18"/>
</filter>
<filter id="filter14_f_144_18" x="365.047" y="251.961" width="22.4517" height="34.281" filterUnits="userSpaceOnUse" color-interpolation-filters="sRGB">
<feFlood flood-opacity="0" result="BackgroundImageFix"/>
<feBlend mode="normal" in="SourceGraphic" in2="BackgroundImageFix" result="shape"/>
<feGaussianBlur stdDeviation="1.83685" result="effect1_foregroundBlur_144_18"/>
</filter>
<filter id="filter15_f_144_18" x="238.201" y="247.42" width="36.14" height="47.0194" filterUnits="userSpaceOnUse" color-interpolation-filters="sRGB">
<feFlood flood-opacity="0" result="BackgroundImageFix"/>
<feBlend mode="normal" in="SourceGraphic" in2="BackgroundImageFix" result="shape"/>
<feGaussianBlur stdDeviation="5.48861" result="effect1_foregroundBlur_144_18"/>
</filter>
<linearGradient id="paint0_linear_144_18" x1="141.19" y1="225.238" x2="448.767" y2="326.359" gradientUnits="userSpaceOnUse">
<stop stop-color="#9336A0"/>
<stop offset="0.0001" stop-color="#A109EF"/>
<stop offset="0.614583" stop-color="#FF1C29"/>
<stop offset="1" stop-color="#FFD601"/>
</linearGradient>
<linearGradient id="paint1_linear_144_18" x1="447.677" y1="302.732" x2="356.515" y2="356.002" gradientUnits="userSpaceOnUse">
<stop stop-color="white" stop-opacity="0.73"/>
<stop offset="1" stop-color="white" stop-opacity="0"/>
</linearGradient>
<linearGradient id="paint2_linear_144_18" x1="327.079" y1="304.707" x2="243.235" y2="353.7" gradientUnits="userSpaceOnUse">
<stop stop-color="white" stop-opacity="0.73"/>
<stop offset="1" stop-color="white" stop-opacity="0"/>
</linearGradient>
<linearGradient id="paint3_linear_144_18" x1="440.885" y1="303.237" x2="404.627" y2="319.812" gradientUnits="userSpaceOnUse">
<stop stop-color="white" stop-opacity="0.74"/>
<stop offset="1" stop-color="white" stop-opacity="0"/>
</linearGradient>
<linearGradient id="paint4_linear_144_18" x1="320.834" y1="305.165" x2="287.487" y2="320.41" gradientUnits="userSpaceOnUse">
<stop stop-color="white" stop-opacity="0.74"/>
<stop offset="1" stop-color="white" stop-opacity="0"/>
</linearGradient>
<linearGradient id="paint5_linear_144_18" x1="433.465" y1="294.034" x2="445.633" y2="311.022" gradientUnits="userSpaceOnUse">
<stop stop-color="white" stop-opacity="0"/>
<stop offset="0.567708" stop-color="white"/>
</linearGradient>
<linearGradient id="paint6_linear_144_18" x1="314.012" y1="296.705" x2="325.203" y2="312.329" gradientUnits="userSpaceOnUse">
<stop stop-color="white" stop-opacity="0"/>
<stop offset="0.567708" stop-color="white"/>
</linearGradient>
<linearGradient id="paint7_linear_144_18" x1="77.1315" y1="189.808" x2="384.708" y2="290.929" gradientUnits="userSpaceOnUse">
<stop stop-color="#9336A0"/>
<stop offset="0.0001" stop-color="#A109EF"/>
<stop offset="0.614583" stop-color="#FF1C29"/>
<stop offset="1" stop-color="#FFD601"/>
</linearGradient>
<linearGradient id="paint8_linear_144_18" x1="383.617" y1="267.302" x2="292.455" y2="320.571" gradientUnits="userSpaceOnUse">
<stop stop-color="white" stop-opacity="0.73"/>
<stop offset="1" stop-color="white" stop-opacity="0"/>
</linearGradient>
<linearGradient id="paint9_linear_144_18" x1="263.02" y1="269.276" x2="179.177" y2="318.269" gradientUnits="userSpaceOnUse">
<stop stop-color="white" stop-opacity="0.73"/>
<stop offset="1" stop-color="white" stop-opacity="0"/>
</linearGradient>
<linearGradient id="paint10_linear_144_18" x1="376.822" y1="267.807" x2="340.564" y2="284.382" gradientUnits="userSpaceOnUse">
<stop stop-color="white" stop-opacity="0.74"/>
<stop offset="1" stop-color="white" stop-opacity="0"/>
</linearGradient>
<linearGradient id="paint11_linear_144_18" x1="256.775" y1="269.735" x2="223.428" y2="284.979" gradientUnits="userSpaceOnUse">
<stop stop-color="white" stop-opacity="0.74"/>
<stop offset="1" stop-color="white" stop-opacity="0"/>
</linearGradient>
<linearGradient id="paint12_linear_144_18" x1="369.403" y1="258.603" x2="381.57" y2="275.592" gradientUnits="userSpaceOnUse">
<stop stop-color="white" stop-opacity="0"/>
<stop offset="0.567708" stop-color="white"/>
</linearGradient>
<linearGradient id="paint13_linear_144_18" x1="249.953" y1="261.274" x2="261.143" y2="276.899" gradientUnits="userSpaceOnUse">
<stop stop-color="white" stop-opacity="0"/>
<stop offset="0.567708" stop-color="white"/>
</linearGradient>
<clipPath id="clip0_144_18">
<rect width="250.801" height="209" fill="white" transform="translate(214.276 204.385)"/>
</clipPath>
<clipPath id="clip1_144_18">
<rect width="250.801" height="209" fill="white" transform="translate(150.219 168.955)"/>
</clipPath>
</defs>
</svg>
