<svg width="544" height="512" viewBox="0 0 544 512" fill="none" xmlns="http://www.w3.org/2000/svg">
<g filter="url(#filter0_i_144_38)">
<path d="M0 165.002C0 73.8739 73.874 0 165.002 0H346.998C438.126 0 512 73.874 512 165.002V346.998C512 438.126 438.126 512 346.998 512H165.002C73.8739 512 0 438.126 0 346.998V165.002Z" fill="#EEF9FF"/>
</g>
<g opacity="0.5" filter="url(#filter1_f_144_38)">
<g clip-path="url(#clip0_144_38)">
<g filter="url(#filter2_i_144_38)">
<path d="M162.905 378.734C162.905 341.533 162.905 304.332 162.905 267.123C164.445 266.501 165.993 265.342 167.533 265.342C270.196 265.259 372.859 265.267 475.522 265.267C479.364 265.267 480.2 266.129 480.2 270.038C480.208 304.655 480.258 339.271 480.126 373.888C480.109 377.649 479.505 381.55 478.37 385.129C473.643 400.031 460.537 409.101 444.152 409.109C363.595 409.118 283.029 409.117 202.472 409.117C200.51 409.117 198.539 409.192 196.585 409.076C182.883 408.231 172.675 401.828 166.515 389.511C164.834 386.164 164.081 382.345 162.905 378.734ZM242.229 344.523C242.229 342.974 242.262 341.425 242.221 339.876C242.071 333.953 237.932 329.853 231.962 329.762C228.659 329.712 225.356 329.663 222.052 329.787C216.762 329.986 212.755 334.028 212.506 339.313C212.415 341.168 212.606 343.04 212.457 344.888C211.587 355.573 215.934 359.715 227.227 359.715C238.71 359.715 243.14 355.905 242.229 344.523Z" fill="url(#paint0_linear_144_38)"/>
</g>
<g filter="url(#filter3_f_144_38)">
<path d="M467.524 371.772C467.524 341.579 467.524 311.386 467.524 281.186C466.107 280.682 464.683 279.741 463.266 279.741C368.816 279.674 274.365 279.68 179.915 279.68C176.381 279.68 175.612 280.38 175.612 283.553C175.604 311.648 175.558 339.744 175.68 367.839C175.695 370.891 176.251 374.058 177.295 376.962C181.644 389.057 193.702 396.418 208.776 396.425C282.889 396.432 357.009 396.432 431.122 396.432C432.927 396.432 434.74 396.492 436.538 396.398C449.144 395.712 458.536 390.515 464.203 380.518C465.749 377.802 466.442 374.703 467.524 371.772ZM394.546 344.006C394.546 342.749 394.515 341.491 394.553 340.234C394.69 335.427 398.499 332.099 403.991 332.026C407.03 331.985 410.069 331.945 413.108 332.046C417.975 332.207 421.662 335.488 421.891 339.777C421.974 341.283 421.799 342.802 421.936 344.302C422.736 352.974 418.737 356.336 408.348 356.336C397.783 356.336 393.708 353.243 394.546 344.006Z" fill="url(#paint1_linear_144_38)"/>
</g>
<path d="M162.905 221.248C164.354 217.089 165.232 212.608 167.368 208.831C174.049 196.977 184.514 190.972 198.125 190.897C217.855 190.781 237.576 190.864 257.305 190.864C319.69 190.864 382.074 190.847 444.458 190.872C461.704 190.88 475.887 201.392 479.074 217.827C480.631 225.82 479.985 234.261 480.026 242.503C480.035 243.464 478.205 244.59 477.029 245.344C476.441 245.717 475.415 245.427 474.595 245.427C372.553 245.427 270.503 245.435 168.46 245.352C166.606 245.352 164.751 244.193 162.905 243.571C162.905 236.125 162.905 228.686 162.905 221.248Z" fill="url(#paint2_linear_144_38)"/>
<g filter="url(#filter4_f_144_38)">
<path d="M170.521 221.029C171.901 217.942 172.736 214.614 174.771 211.809C181.133 203.008 191.099 198.549 204.06 198.493C222.848 198.407 241.628 198.469 260.416 198.469C319.823 198.469 379.231 198.456 438.638 198.475C455.06 198.481 468.566 206.286 471.601 218.489C473.084 224.425 472.469 230.692 472.508 236.812C472.516 237.526 470.773 238.362 469.654 238.922C469.094 239.199 468.117 238.983 467.336 238.983C370.164 238.983 272.984 238.99 175.811 238.928C174.045 238.928 172.279 238.067 170.521 237.606C170.521 232.076 170.521 226.553 170.521 221.029Z" fill="url(#paint3_linear_144_38)"/>
</g>
<g filter="url(#filter5_f_144_38)">
<path d="M183.215 225.161C184.908 219.238 192.608 207.646 209.87 208.661" stroke="white" stroke-width="5.07699" stroke-linecap="round"/>
</g>
<g filter="url(#filter6_f_144_38)">
<path d="M209.865 379.947C200.981 380.37 183.211 375.632 183.211 353.293" stroke="white" stroke-width="5.07699" stroke-linecap="round"/>
</g>
</g>
</g>
<g clip-path="url(#clip1_144_38)">
<g filter="url(#filter7_i_144_38)">
<path d="M116.363 332.192C116.363 294.991 116.363 257.79 116.363 220.581C117.903 219.959 119.451 218.8 120.991 218.8C223.654 218.717 326.317 218.725 428.98 218.725C432.822 218.725 433.658 219.587 433.658 223.496C433.666 258.113 433.716 292.729 433.583 327.346C433.567 331.107 432.962 335.008 431.828 338.587C427.101 353.489 413.995 362.559 397.61 362.567C317.053 362.576 236.487 362.576 155.929 362.576C153.967 362.576 151.997 362.65 150.043 362.534C136.341 361.689 126.132 355.286 119.973 342.969C118.292 339.622 117.538 335.803 116.363 332.192ZM195.687 297.981C195.687 296.432 195.72 294.883 195.678 293.334C195.529 287.411 191.39 283.311 185.42 283.22C182.117 283.17 178.813 283.121 175.51 283.245C170.22 283.444 166.212 287.486 165.964 292.771C165.873 294.626 166.063 296.498 165.914 298.346C165.045 309.031 169.392 313.173 180.685 313.173C192.168 313.173 196.597 309.363 195.687 297.981Z" fill="url(#paint4_linear_144_38)"/>
</g>
<g filter="url(#filter8_f_144_38)">
<path d="M420.984 325.232C420.984 295.039 420.984 264.846 420.984 234.647C419.568 234.143 418.143 233.201 416.726 233.201C322.276 233.134 227.826 233.141 133.376 233.141C129.842 233.141 129.072 233.84 129.072 237.013C129.065 265.109 129.019 293.204 129.141 321.299C129.156 324.352 129.712 327.518 130.756 330.422C135.105 342.517 147.163 349.879 162.236 349.885C236.349 349.892 310.47 349.892 384.583 349.892C386.388 349.892 388.201 349.953 389.998 349.859C402.605 349.173 411.996 343.976 417.663 333.979C419.21 331.263 419.903 328.163 420.984 325.232ZM348.006 297.466C348.006 296.209 347.976 294.952 348.014 293.695C348.151 288.888 351.959 285.56 357.451 285.486C360.49 285.446 363.53 285.405 366.569 285.506C371.436 285.667 375.123 288.948 375.351 293.238C375.435 294.744 375.26 296.263 375.397 297.762C376.197 306.435 372.198 309.796 361.808 309.796C351.243 309.796 347.168 306.704 348.006 297.466Z" fill="url(#paint5_linear_144_38)"/>
</g>
<path d="M116.363 174.708C117.812 170.55 118.689 166.069 120.825 162.291C127.507 150.438 137.972 144.432 151.583 144.358C171.312 144.242 191.034 144.324 210.763 144.324C273.147 144.324 335.532 144.308 397.916 144.333C415.162 144.341 429.344 154.853 432.532 171.287C434.088 179.281 433.443 187.721 433.484 195.963C433.492 196.924 431.663 198.051 430.487 198.805C429.899 199.177 428.872 198.888 428.053 198.888C326.011 198.888 223.96 198.896 121.918 198.813C120.064 198.813 118.209 197.653 116.363 197.032C116.363 189.585 116.363 182.147 116.363 174.708Z" fill="url(#paint6_linear_144_38)"/>
<g filter="url(#filter9_f_144_38)">
<path d="M123.981 174.49C125.361 171.402 126.197 168.075 128.231 165.27C134.594 156.468 144.559 152.009 157.521 151.954C176.309 151.867 195.089 151.929 213.877 151.929C273.284 151.929 332.691 151.917 392.098 151.935C408.521 151.941 422.026 159.747 425.062 171.95C426.544 177.885 425.929 184.153 425.968 190.273C425.976 190.986 424.234 191.823 423.114 192.382C422.555 192.659 421.577 192.444 420.796 192.444C323.624 192.444 226.444 192.45 129.272 192.388C127.506 192.388 125.74 191.527 123.981 191.066C123.981 185.537 123.981 180.013 123.981 174.49Z" fill="url(#paint7_linear_144_38)"/>
</g>
<g filter="url(#filter10_f_144_38)">
<path d="M136.676 178.622C138.368 172.698 146.068 161.106 163.33 162.121" stroke="white" stroke-width="5.07699" stroke-linecap="round"/>
</g>
<g filter="url(#filter11_f_144_38)">
<path d="M163.326 333.405C154.441 333.828 136.672 329.09 136.672 306.751" stroke="white" stroke-width="5.07699" stroke-linecap="round"/>
</g>
<g filter="url(#filter12_f_144_38)">
<path d="M134.133 314.368C136.248 321.137 145.048 335.692 163.325 339.753" stroke="url(#paint8_linear_144_38)" stroke-width="7.61548" stroke-linecap="round"/>
</g>
</g>
<defs>
<filter id="filter0_i_144_38" x="0" y="0" width="555.154" height="567.847" filterUnits="userSpaceOnUse" color-interpolation-filters="sRGB">
<feFlood flood-opacity="0" result="BackgroundImageFix"/>
<feBlend mode="normal" in="SourceGraphic" in2="BackgroundImageFix" result="shape"/>
<feColorMatrix in="SourceAlpha" type="matrix" values="0 0 0 0 0 0 0 0 0 0 0 0 0 0 0 0 0 0 127 0" result="hardAlpha"/>
<feOffset dx="43.1544" dy="55.8469"/>
<feGaussianBlur stdDeviation="34.2697"/>
<feComposite in2="hardAlpha" operator="arithmetic" k2="-1" k3="1"/>
<feColorMatrix type="matrix" values="0 0 0 0 0.85098 0 0 0 0 0.937255 0 0 0 0 0.945098 0 0 0 1 0"/>
<feBlend mode="normal" in2="shape" result="effect1_innerShadow_144_38"/>
</filter>
<filter id="filter1_f_144_38" x="99.4439" y="127.369" width="444.236" height="345.235" filterUnits="userSpaceOnUse" color-interpolation-filters="sRGB">
<feFlood flood-opacity="0" result="BackgroundImageFix"/>
<feBlend mode="normal" in="SourceGraphic" in2="BackgroundImageFix" result="shape"/>
<feGaussianBlur stdDeviation="31.7312" result="effect1_foregroundBlur_144_38"/>
</filter>
<filter id="filter2_i_144_38" x="150.213" y="265.267" width="330.003" height="146.413" filterUnits="userSpaceOnUse" color-interpolation-filters="sRGB">
<feFlood flood-opacity="0" result="BackgroundImageFix"/>
<feBlend mode="normal" in="SourceGraphic" in2="BackgroundImageFix" result="shape"/>
<feColorMatrix in="SourceAlpha" type="matrix" values="0 0 0 0 0 0 0 0 0 0 0 0 0 0 0 0 0 0 127 0" result="hardAlpha"/>
<feOffset dx="-12.6925" dy="2.53849"/>
<feGaussianBlur stdDeviation="10.154"/>
<feComposite in2="hardAlpha" operator="arithmetic" k2="-1" k3="1"/>
<feColorMatrix type="matrix" values="0 0 0 0 1 0 0 0 0 1 0 0 0 0 1 0 0 0 0.25 0"/>
<feBlend mode="normal" in2="shape" result="effect1_innerShadow_144_38"/>
</filter>
<filter id="filter3_f_144_38" x="117.212" y="221.295" width="408.697" height="233.541" filterUnits="userSpaceOnUse" color-interpolation-filters="sRGB">
<feFlood flood-opacity="0" result="BackgroundImageFix"/>
<feBlend mode="normal" in="SourceGraphic" in2="BackgroundImageFix" result="shape"/>
<feGaussianBlur stdDeviation="29.1927" result="effect1_foregroundBlur_144_38"/>
</filter>
<filter id="filter4_f_144_38" x="165.444" y="193.37" width="312.235" height="50.7699" filterUnits="userSpaceOnUse" color-interpolation-filters="sRGB">
<feFlood flood-opacity="0" result="BackgroundImageFix"/>
<feBlend mode="normal" in="SourceGraphic" in2="BackgroundImageFix" result="shape"/>
<feGaussianBlur stdDeviation="2.53849" result="effect1_foregroundBlur_144_38"/>
</filter>
<filter id="filter5_f_144_38" x="175.599" y="200.982" width="41.8859" height="31.7951" filterUnits="userSpaceOnUse" color-interpolation-filters="sRGB">
<feFlood flood-opacity="0" result="BackgroundImageFix"/>
<feBlend mode="normal" in="SourceGraphic" in2="BackgroundImageFix" result="shape"/>
<feGaussianBlur stdDeviation="2.53849" result="effect1_foregroundBlur_144_38"/>
</filter>
<filter id="filter6_f_144_38" x="162.903" y="332.985" width="67.2701" height="67.2953" filterUnits="userSpaceOnUse" color-interpolation-filters="sRGB">
<feFlood flood-opacity="0" result="BackgroundImageFix"/>
<feBlend mode="normal" in="SourceGraphic" in2="BackgroundImageFix" result="shape"/>
<feGaussianBlur stdDeviation="8.88473" result="effect1_foregroundBlur_144_38"/>
</filter>
<filter id="filter7_i_144_38" x="103.67" y="218.725" width="330.003" height="146.413" filterUnits="userSpaceOnUse" color-interpolation-filters="sRGB">
<feFlood flood-opacity="0" result="BackgroundImageFix"/>
<feBlend mode="normal" in="SourceGraphic" in2="BackgroundImageFix" result="shape"/>
<feColorMatrix in="SourceAlpha" type="matrix" values="0 0 0 0 0 0 0 0 0 0 0 0 0 0 0 0 0 0 127 0" result="hardAlpha"/>
<feOffset dx="-12.6925" dy="2.53849"/>
<feGaussianBlur stdDeviation="10.154"/>
<feComposite in2="hardAlpha" operator="arithmetic" k2="-1" k3="1"/>
<feColorMatrix type="matrix" values="0 0 0 0 1 0 0 0 0 1 0 0 0 0 1 0 0 0 0.25 0"/>
<feBlend mode="normal" in2="shape" result="effect1_innerShadow_144_38"/>
</filter>
<filter id="filter8_f_144_38" x="70.6723" y="174.755" width="408.697" height="233.541" filterUnits="userSpaceOnUse" color-interpolation-filters="sRGB">
<feFlood flood-opacity="0" result="BackgroundImageFix"/>
<feBlend mode="normal" in="SourceGraphic" in2="BackgroundImageFix" result="shape"/>
<feGaussianBlur stdDeviation="29.1927" result="effect1_foregroundBlur_144_38"/>
</filter>
<filter id="filter9_f_144_38" x="118.904" y="146.831" width="312.235" height="50.7698" filterUnits="userSpaceOnUse" color-interpolation-filters="sRGB">
<feFlood flood-opacity="0" result="BackgroundImageFix"/>
<feBlend mode="normal" in="SourceGraphic" in2="BackgroundImageFix" result="shape"/>
<feGaussianBlur stdDeviation="2.53849" result="effect1_foregroundBlur_144_38"/>
</filter>
<filter id="filter10_f_144_38" x="129.06" y="154.443" width="41.8859" height="31.7948" filterUnits="userSpaceOnUse" color-interpolation-filters="sRGB">
<feFlood flood-opacity="0" result="BackgroundImageFix"/>
<feBlend mode="normal" in="SourceGraphic" in2="BackgroundImageFix" result="shape"/>
<feGaussianBlur stdDeviation="2.53849" result="effect1_foregroundBlur_144_38"/>
</filter>
<filter id="filter11_f_144_38" x="116.364" y="286.443" width="67.2701" height="67.2953" filterUnits="userSpaceOnUse" color-interpolation-filters="sRGB">
<feFlood flood-opacity="0" result="BackgroundImageFix"/>
<feBlend mode="normal" in="SourceGraphic" in2="BackgroundImageFix" result="shape"/>
<feGaussianBlur stdDeviation="8.88473" result="effect1_foregroundBlur_144_38"/>
</filter>
<filter id="filter12_f_144_38" x="104.939" y="285.174" width="87.5799" height="83.7723" filterUnits="userSpaceOnUse" color-interpolation-filters="sRGB">
<feFlood flood-opacity="0" result="BackgroundImageFix"/>
<feBlend mode="normal" in="SourceGraphic" in2="BackgroundImageFix" result="shape"/>
<feGaussianBlur stdDeviation="12.6925" result="effect1_foregroundBlur_144_38"/>
</filter>
<linearGradient id="paint0_linear_144_38" x1="162.905" y1="315.218" x2="431.985" y2="438.335" gradientUnits="userSpaceOnUse">
<stop stop-color="#48D3FF"/>
<stop offset="0.421875" stop-color="#4159FF"/>
<stop offset="0.96875" stop-color="#8941FF"/>
</linearGradient>
<linearGradient id="paint1_linear_144_38" x1="467.524" y1="320.221" x2="199.774" y2="414.298" gradientUnits="userSpaceOnUse">
<stop offset="0.442353" stop-color="white" stop-opacity="0"/>
<stop offset="1" stop-color="white" stop-opacity="0.78"/>
</linearGradient>
<linearGradient id="paint2_linear_144_38" x1="202.252" y1="176.869" x2="400.254" y2="335.525" gradientUnits="userSpaceOnUse">
<stop offset="0.156974" stop-color="#48E9FF"/>
<stop offset="0.734375" stop-color="#4159FF"/>
<stop offset="1" stop-color="#CE41FF"/>
</linearGradient>
<linearGradient id="paint3_linear_144_38" x1="241.599" y1="189.563" x2="251.183" y2="241.733" gradientUnits="userSpaceOnUse">
<stop stop-color="white"/>
<stop offset="1" stop-color="white" stop-opacity="0"/>
</linearGradient>
<linearGradient id="paint4_linear_144_38" x1="116.363" y1="268.676" x2="385.443" y2="391.793" gradientUnits="userSpaceOnUse">
<stop stop-color="#48D3FF"/>
<stop offset="0.421875" stop-color="#4159FF"/>
<stop offset="0.96875" stop-color="#8941FF"/>
</linearGradient>
<linearGradient id="paint5_linear_144_38" x1="420.984" y1="273.682" x2="153.235" y2="367.758" gradientUnits="userSpaceOnUse">
<stop offset="0.442353" stop-color="white" stop-opacity="0"/>
<stop offset="1" stop-color="white" stop-opacity="0.78"/>
</linearGradient>
<linearGradient id="paint6_linear_144_38" x1="155.709" y1="130.33" x2="353.712" y2="288.985" gradientUnits="userSpaceOnUse">
<stop offset="0.156974" stop-color="#48E9FF"/>
<stop offset="0.734375" stop-color="#4159FF"/>
<stop offset="1" stop-color="#CE41FF"/>
</linearGradient>
<linearGradient id="paint7_linear_144_38" x1="195.059" y1="143.023" x2="204.643" y2="195.193" gradientUnits="userSpaceOnUse">
<stop stop-color="white"/>
<stop offset="1" stop-color="white" stop-opacity="0"/>
</linearGradient>
<linearGradient id="paint8_linear_144_38" x1="157.915" y1="313.655" x2="134.593" y2="331.253" gradientUnits="userSpaceOnUse">
<stop stop-color="white"/>
<stop offset="1" stop-color="white" stop-opacity="0.11"/>
</linearGradient>
<clipPath id="clip0_144_38">
<rect width="317.312" height="218.31" fill="white" transform="translate(162.906 190.832)"/>
</clipPath>
<clipPath id="clip1_144_38">
<rect width="317.312" height="218.31" fill="white" transform="translate(116.364 144.294)"/>
</clipPath>
</defs>
</svg>
